<?xml version="1.0" encoding="utf-8"?>
<!-- Generator: Adobe Illustrator 24.3.0, SVG Export Plug-In . SVG Version: 6.00 Build 0)  -->
<svg version="1.1" id="Layer_1" xmlns="http://www.w3.org/2000/svg" xmlns:xlink="http://www.w3.org/1999/xlink" x="0px" y="0px"
	 viewBox="0 0 64 64" enable-background="new 0 0 64 64" xml:space="preserve">
<rect x="3" y="17" fill="#FAE3C8" width="58" height="44"/>
<path fill="#2060A1" d="M55,8V4c0-0.6-0.4-1-1-1h-2c-0.6,0-1,0.4-1,1v4H41V4c0-0.6-0.4-1-1-1h-2c-0.6,0-1,0.4-1,1v4H27V4
	c0-0.6-0.4-1-1-1h-2c-0.6,0-1,0.4-1,1v4H13V4c0-0.6-0.4-1-1-1h-2C9.4,3,9,3.4,9,4v4H3v9h58V8H55z"/>
<path opacity="0.15" fill="#222426" d="M27,12h-4V8h-2v5h1.3c0.3,0.6,1,1,1.7,1h2c0.7,0,1.4-0.4,1.7-1H29V8h-2V12z"/>
<path opacity="0.15" fill="#222426" d="M41,12h-4V8h-2v5h1.3c0.3,0.6,1,1,1.7,1h2c0.7,0,1.4-0.4,1.7-1H43V8h-2V12z"/>
<path opacity="0.15" fill="#222426" d="M57,8h-2v4h-4V8h-2v5h1.3c0.3,0.6,1,1,1.7,1h2c0.7,0,1.4-0.4,1.7-1H57V8z"/>
<path opacity="0.15" fill="#222426" d="M13,12H9V8H7v5h1.3c0.3,0.6,1,1,1.7,1h2c0.7,0,1.4-0.4,1.7-1H15V8h-2V12z"/>
<path opacity="0.15" fill="#222426" d="M61,27H47V17h-2v10H33V17h-2v10H19V17h-2v10H3v2h14v9H3v2h14v7h2v-7h12h2h12h2h14v-2H47v-9
	h14V27z M19,38v-9h12v9H19z M45,38H33v-9h12V38z"/>
<rect x="3" y="49" opacity="0.15" fill="#222426" width="13" height="2"/>
<rect x="13" y="24" fill="#BC3131" width="2" height="2"/>
<rect x="41" y="24" fill="#BC3131" width="2" height="2"/>
<rect x="37" y="24" fill="#E8B408" width="2" height="2"/>
<rect x="56" y="35" fill="#BC3131" width="2" height="2"/>
<path fill="#E8B408" d="M60,50h-2v4h2c0.6,0,1-0.4,1-1v-2C61,50.4,60.6,50,60,50z"/>
<path fill="#E8B408" d="M20,50c-0.6,0-1,0.4-1,1v2c0,0.6,0.4,1,1,1h2v-4H20z"/>
<rect x="34" y="50" fill="#E8B408" width="12" height="4"/>
<path fill="#BC3131" d="M57,46h-2c-0.6,0-1,0.4-1,1v-2c0-0.6-0.4-1-1-1h-2c-0.6,0-1,0.4-1,1v-1c0-0.6-0.4-1-1-1h-2c-0.6,0-1,0.4-1,1
	v6v4v6c0,0.6,0.4,1,1,1h2c0.6,0,1-0.4,1-1v-1c0,0.6,0.4,1,1,1h2c0.6,0,1-0.4,1-1v-2c0,0.6,0.4,1,1,1h2c0.6,0,1-0.4,1-1v-3v-4v-3
	C58,46.4,57.6,46,57,46z"/>
<path fill="#BC3131" d="M33,43h-2c-0.6,0-1,0.4-1,1v1c0-0.6-0.4-1-1-1h-2c-0.6,0-1,0.4-1,1v2c0-0.6-0.4-1-1-1h-2c-0.6,0-1,0.4-1,1v3
	v4v3c0,0.6,0.4,1,1,1h2c0.6,0,1-0.4,1-1v2c0,0.6,0.4,1,1,1h2c0.6,0,1-0.4,1-1v1c0,0.6,0.4,1,1,1h2c0.6,0,1-0.4,1-1v-6v-4v-6
	C34,43.4,33.6,43,33,43z"/>
<path opacity="0.15" fill="#222426" d="M46,50v4H34v-4l0.5,1.6c0.3,0.8,1,1.4,1.9,1.4h7.1c0.9,0,1.6-0.6,1.9-1.4L46,50z"/>
<path opacity="0.15" fill="#222426" d="M26,49l-0.8,5.3c-0.1,1-1,1.7-2,1.7H22v1c0,0.6,0.4,1,1,1h2c0.6,0,1-0.4,1-1V49z"/>
<path opacity="0.15" fill="#222426" d="M30,51l-0.8,5.3c-0.1,1-1,1.7-2,1.7H26v1c0,0.6,0.4,1,1,1h2c0.6,0,1-0.4,1-1V51z"/>
<path opacity="0.15" fill="#222426" d="M34,52l-0.8,5.3c-0.1,1-1,1.7-2,1.7H30v1c0,0.6,0.4,1,1,1h2c0.6,0,1-0.4,1-1V52z"/>
<path opacity="0.15" fill="#222426" d="M54,49l0.8,5.3c0.1,1,1,1.7,2,1.7H58v1c0,0.6-0.4,1-1,1h-2c-0.6,0-1-0.4-1-1V49z"/>
<path opacity="0.15" fill="#222426" d="M50,51l0.8,5.3c0.1,1,1,1.7,2,1.7H54v1c0,0.6-0.4,1-1,1h-2c-0.6,0-1-0.4-1-1V51z"/>
<path opacity="0.15" fill="#222426" d="M46,52l0.8,5.3c0.1,1,1,1.7,2,1.7H50v1c0,0.6-0.4,1-1,1h-2c-0.6,0-1-0.4-1-1V52z"/>
<path opacity="0.15" fill="#222426" d="M20,54l0.7-0.7c0.2-0.2,0.4-0.5,0.5-0.8L22,50v4H20z"/>
<path opacity="0.15" fill="#222426" d="M60,54l-0.7-0.7c-0.2-0.2-0.4-0.5-0.5-0.8L58,50v4H60z"/>
</svg>
